<svg xmlns="http://www.w3.org/2000/svg" width="1440" height="900"><path d="M884,427L1060,429L888,188Z" fill="#78ce8f" stroke="#78ce8f" stroke-width="1.51"/><path d="M1060,429L1054,183L888,188Z" fill="#66be88" stroke="#66be88" stroke-width="1.51"/><path d="M1060,429L1281,208L1054,183Z" fill="#58b584" stroke="#58b584" stroke-width="1.51"/><path d="M1035,718L1235,444L1060,429Z" fill="#6ac78b" stroke="#6ac78b" stroke-width="1.51"/><path d="M1235,444L1281,208L1060,429Z" fill="#5fbd88" stroke="#5fbd88" stroke-width="1.51"/><path d="M557,455L779,613L884,427Z" fill="#94e89a" stroke="#94e89a" stroke-width="1.51"/><path d="M1028,-60L857,-23L888,188Z" fill="#54a67c" stroke="#54a67c" stroke-width="1.51"/><path d="M1028,-60L888,188L1054,183Z" fill="#4da87e" stroke="#4da87e" stroke-width="1.51"/><path d="M884,427L1035,718L1060,429Z" fill="#77d190" stroke="#77d190" stroke-width="1.51"/><path d="M631,159L884,427L888,188Z" fill="#79cd8e" stroke="#79cd8e" stroke-width="1.51"/><path d="M1269,-9L1028,-60L1054,183Z" fill="#3d9775" stroke="#3d9775" stroke-width="1.51"/><path d="M857,-23L631,159L888,188Z" fill="#63b885" stroke="#63b885" stroke-width="1.51"/><path d="M779,613L1035,718L884,427Z" fill="#78d190" stroke="#78d190" stroke-width="1.51"/><path d="M1281,208L1269,-9L1054,183Z" fill="#379b78" stroke="#379b78" stroke-width="1.51"/><path d="M631,159L557,455L884,427Z" fill="#8bdd95" stroke="#8bdd95" stroke-width="1.51"/><path d="M1235,444L1490,180L1281,208Z" fill="#46a77c" stroke="#46a77c" stroke-width="1.51"/><path d="M1281,208L1490,180L1269,-9Z" fill="#2a9272" stroke="#2a9272" stroke-width="1.51"/><path d="M1035,718L1313,636L1235,444Z" fill="#56b986" stroke="#56b986" stroke-width="1.51"/><path d="M779,613L772,901L1035,718Z" fill="#63c289" stroke="#63c289" stroke-width="1.51"/><path d="M557,455L605,615L779,613Z" fill="#86db94" stroke="#86db94" stroke-width="1.51"/><path d="M857,-23L615,-15L631,159Z" fill="#65b382" stroke="#65b382" stroke-width="1.51"/><path d="M312,236L380,483L557,455Z" fill="#75c88c" stroke="#75c88c" stroke-width="1.51"/><path d="M829,-287L615,-15L857,-23Z" fill="#98b178" stroke="#98b178" stroke-width="1.51"/><path d="M1028,-60L996,-215L857,-23Z" fill="#84a372" stroke="#84a372" stroke-width="1.51"/><path d="M1256,-215L996,-215L1028,-60Z" fill="#8c986a" stroke="#8c986a" stroke-width="1.51"/><path d="M1550,515L1490,180L1235,444Z" fill="#55b07f" stroke="#55b07f" stroke-width="1.51"/><path d="M1269,-9L1256,-215L1028,-60Z" fill="#6f926b" stroke="#6f926b" stroke-width="1.51"/><path d="M1516,-197L1256,-215L1269,-9Z" fill="#728762" stroke="#728762" stroke-width="1.51"/><path d="M1313,636L1550,515L1235,444Z" fill="#54b482" stroke="#54b482" stroke-width="1.51"/><path d="M1256,-215L829,-287L996,-215Z" fill="#a79c67" stroke="#a79c67" stroke-width="1.51"/><path d="M996,-215L829,-287L857,-23Z" fill="#a1a76f" stroke="#a1a76f" stroke-width="1.51"/><path d="M1313,636L1485,649L1550,515Z" fill="#48a87b" stroke="#48a87b" stroke-width="1.51"/><path d="M1327,942L1485,649L1313,636Z" fill="#2e9d77" stroke="#2e9d77" stroke-width="1.51"/><path d="M557,455L439,679L605,615Z" fill="#77cd8f" stroke="#77cd8f" stroke-width="1.51"/><path d="M312,236L557,455L631,159Z" fill="#6ec089" stroke="#6ec089" stroke-width="1.51"/><path d="M605,615L772,901L779,613Z" fill="#77d191" stroke="#77d191" stroke-width="1.51"/><path d="M1035,718L1327,942L1313,636Z" fill="#33a47c" stroke="#33a47c" stroke-width="1.51"/><path d="M598,969L772,901L605,615Z" fill="#5fbe88" stroke="#5fbe88" stroke-width="1.51"/><path d="M615,-15L432,-36L631,159Z" fill="#58a67c" stroke="#58a67c" stroke-width="1.51"/><path d="M578,-277L432,-36L615,-15Z" fill="#8ba471" stroke="#8ba471" stroke-width="1.51"/><path d="M380,483L439,679L557,455Z" fill="#75ca8d" stroke="#75ca8d" stroke-width="1.51"/><path d="M772,901L1029,966L1035,718Z" fill="#48af81" stroke="#48af81" stroke-width="1.51"/><path d="M432,-36L312,236L631,159Z" fill="#50a57d" stroke="#50a57d" stroke-width="1.51"/><path d="M1701,30L1579,-5L1490,180Z" fill="#187d65" stroke="#187d65" stroke-width="1.51"/><path d="M1490,180L1579,-5L1269,-9Z" fill="#16836b" stroke="#16836b" stroke-width="1.51"/><path d="M829,-287L578,-277L615,-15Z" fill="#b1af72" stroke="#b1af72" stroke-width="1.51"/><path d="M1029,966L1327,942L1035,718Z" fill="#2fa07a" stroke="#2fa07a" stroke-width="1.51"/><path d="M1697,646L1550,515L1485,649Z" fill="#45a176" stroke="#45a176" stroke-width="1.51"/><path d="M1697,646L1683,475L1550,515Z" fill="#4da476" stroke="#4da476" stroke-width="1.51"/><path d="M1550,515L1683,475L1490,180Z" fill="#53aa7a" stroke="#53aa7a" stroke-width="1.51"/><path d="M1579,-5L1516,-197L1269,-9Z" fill="#588262" stroke="#588262" stroke-width="1.51"/><path d="M1256,-215L1785,-243L829,-287Z" fill="#93885e" stroke="#93885e" stroke-width="1.51"/><path d="M1683,475L1712,210L1490,180Z" fill="#429971" stroke="#429971" stroke-width="1.51"/><path d="M1579,-5L1785,-243L1516,-197Z" fill="#6c7857" stroke="#6c7857" stroke-width="1.51"/><path d="M800,1128L1110,1096L1029,966Z" fill="#3f9d74" stroke="#3f9d74" stroke-width="1.51"/><path d="M439,679L598,969L605,615Z" fill="#5ebb86" stroke="#5ebb86" stroke-width="1.51"/><path d="M1712,210L1701,30L1490,180Z" fill="#288468" stroke="#288468" stroke-width="1.51"/><path d="M1545,937L1697,646L1485,649Z" fill="#2a926f" stroke="#2a926f" stroke-width="1.51"/><path d="M1683,475L1812,880L1712,210Z" fill="#4fa273" stroke="#4fa273" stroke-width="1.51"/><path d="M1029,966L1110,1096L1327,942Z" fill="#289471" stroke="#289471" stroke-width="1.51"/><path d="M800,1128L1029,966L772,901Z" fill="#4eab7b" stroke="#4eab7b" stroke-width="1.51"/><path d="M439,679L388,900L598,969Z" fill="#47a97f" stroke="#47a97f" stroke-width="1.51"/><path d="M380,483L172,711L439,679Z" fill="#5bb483" stroke="#5bb483" stroke-width="1.51"/><path d="M312,236L187,480L380,483Z" fill="#69bc87" stroke="#69bc87" stroke-width="1.51"/><path d="M112,216L187,480L312,236Z" fill="#53a77e" stroke="#53a77e" stroke-width="1.51"/><path d="M172,711L388,900L439,679Z" fill="#45a67c" stroke="#45a67c" stroke-width="1.51"/><path d="M567,1188L800,1128L598,969Z" fill="#54a877" stroke="#54a877" stroke-width="1.51"/><path d="M598,969L800,1128L772,901Z" fill="#5db680" stroke="#5db680" stroke-width="1.51"/><path d="M1327,942L1545,937L1485,649Z" fill="#0e8e70" stroke="#0e8e70" stroke-width="1.51"/><path d="M1455,1095L1545,937L1327,942Z" fill="#088367" stroke="#088367" stroke-width="1.51"/><path d="M170,-52L112,216L312,236Z" fill="#348e72" stroke="#348e72" stroke-width="1.51"/><path d="M170,-52L312,236L432,-36Z" fill="#348d72" stroke="#348d72" stroke-width="1.51"/><path d="M578,-277L312,-255L432,-36Z" fill="#999968" stroke="#999968" stroke-width="1.51"/><path d="M312,-255L170,-52L432,-36Z" fill="#778d68" stroke="#778d68" stroke-width="1.51"/><path d="M1110,1096L1257,1151L1327,942Z" fill="#198a6b" stroke="#198a6b" stroke-width="1.51"/><path d="M800,1128L1257,1151L1110,1096Z" fill="#34936e" stroke="#34936e" stroke-width="1.51"/><path d="M187,480L172,711L380,483Z" fill="#5cb382" stroke="#5cb382" stroke-width="1.51"/><path d="M-30,446L172,711L187,480Z" fill="#61ab7e" stroke="#61ab7e" stroke-width="1.51"/><path d="M1257,1151L1455,1095L1327,942Z" fill="#088367" stroke="#088367" stroke-width="1.51"/><path d="M800,1128L567,1188L1257,1151Z" fill="#499e71" stroke="#499e71" stroke-width="1.51"/><path d="M407,1117L567,1188L598,969Z" fill="#469b73" stroke="#469b73" stroke-width="1.51"/><path d="M407,1117L598,969L388,900Z" fill="#429d76" stroke="#429d76" stroke-width="1.51"/><path d="M1701,30L1785,-243L1579,-5Z" fill="#537659" stroke="#537659" stroke-width="1.51"/><path d="M1516,-197L1785,-243L1256,-215Z" fill="#837d57" stroke="#837d57" stroke-width="1.51"/><path d="M1712,210L1785,-243L1701,30Z" fill="#36745b" stroke="#36745b" stroke-width="1.51"/><path d="M1812,880L1785,-243L1712,210Z" fill="#3f906b" stroke="#3f906b" stroke-width="1.51"/><path d="M198,1099L407,1117L388,900Z" fill="#318d6d" stroke="#318d6d" stroke-width="1.51"/><path d="M829,-287L169,-277L578,-277Z" fill="#ba9f66" stroke="#ba9f66" stroke-width="1.51"/><path d="M578,-277L169,-277L312,-255Z" fill="#a78e60" stroke="#a78e60" stroke-width="1.51"/><path d="M312,-255L169,-277L170,-52Z" fill="#86845f" stroke="#86845f" stroke-width="1.51"/><path d="M-66,185L-30,446L112,216Z" fill="#739e73" stroke="#739e73" stroke-width="1.51"/><path d="M172,711L138,927L388,900Z" fill="#279374" stroke="#279374" stroke-width="1.51"/><path d="M112,216L-30,446L187,480Z" fill="#6aac7d" stroke="#6aac7d" stroke-width="1.51"/><path d="M-66,185L112,216L170,-52Z" fill="#49886b" stroke="#49886b" stroke-width="1.51"/><path d="M1697,646L1812,880L1683,475Z" fill="#37926c" stroke="#37926c" stroke-width="1.51"/><path d="M1545,937L1812,880L1697,646Z" fill="#148467" stroke="#148467" stroke-width="1.51"/><path d="M1748,1170L1812,880L1545,937Z" fill="#05765c" stroke="#05765c" stroke-width="1.51"/><path d="M-58,720L138,927L172,711Z" fill="#459170" stroke="#459170" stroke-width="1.51"/><path d="M-143,31L-66,185L170,-52Z" fill="#587f65" stroke="#587f65" stroke-width="1.51"/><path d="M407,1117L198,1099L567,1188Z" fill="#368c6a" stroke="#368c6a" stroke-width="1.51"/><path d="M138,927L198,1099L388,900Z" fill="#25896d" stroke="#25896d" stroke-width="1.51"/><path d="M-43,920L198,1099L138,927Z" fill="#328166" stroke="#328166" stroke-width="1.51"/><path d="M-30,446L-58,720L172,711Z" fill="#6da276" stroke="#6da276" stroke-width="1.51"/><path d="M-314,614L-58,720L-30,446Z" fill="#96a570" stroke="#96a570" stroke-width="1.51"/><path d="M-66,185L-314,482L-30,446Z" fill="#9ea972" stroke="#9ea972" stroke-width="1.51"/><path d="M-110,-266L-143,31L170,-52Z" fill="#877d5b" stroke="#877d5b" stroke-width="1.51"/><path d="M1455,1095L1748,1170L1545,937Z" fill="#05775d" stroke="#05775d" stroke-width="1.51"/><path d="M1257,1151L1748,1170L1455,1095Z" fill="#05765d" stroke="#05765d" stroke-width="1.51"/><path d="M567,1188L1748,1170L1257,1151Z" fill="#1f8567" stroke="#1f8567" stroke-width="1.51"/><path d="M-58,720L-43,920L138,927Z" fill="#538a6a" stroke="#538a6a" stroke-width="1.51"/><path d="M-341,873L-43,920L-58,720Z" fill="#7a8b64" stroke="#7a8b64" stroke-width="1.51"/><path d="M169,-277L-110,-266L170,-52Z" fill="#8e7c59" stroke="#8e7c59" stroke-width="1.51"/><path d="M-351,197L-66,185L-143,31Z" fill="#898962" stroke="#898962" stroke-width="1.51"/><path d="M-351,197L-314,482L-66,185Z" fill="#a89c68" stroke="#a89c68" stroke-width="1.51"/><path d="M-110,-266L-318,40L-143,31Z" fill="#9b7b56" stroke="#9b7b56" stroke-width="1.51"/><path d="M-314,482L-314,614L-30,446Z" fill="#b2ac70" stroke="#b2ac70" stroke-width="1.51"/><path d="M-351,197L-314,614L-314,482Z" fill="#cbaf6c" stroke="#cbaf6c" stroke-width="1.51"/><path d="M-318,40L-351,197L-143,31Z" fill="#92815b" stroke="#92815b" stroke-width="1.51"/><path d="M-268,1115L-138,1122L-43,920Z" fill="#717b58" stroke="#717b58" stroke-width="1.51"/><path d="M-43,920L-138,1122L198,1099Z" fill="#4e7c5f" stroke="#4e7c5f" stroke-width="1.51"/><path d="M198,1099L-138,1122L567,1188Z" fill="#1c7b62" stroke="#1c7b62" stroke-width="1.51"/><path d="M-314,614L-341,873L-58,720Z" fill="#999565" stroke="#999565" stroke-width="1.51"/><path d="M-351,197L-341,873L-314,614Z" fill="#c1a668" stroke="#c1a668" stroke-width="1.51"/><path d="M-351,197L-360,-299L-341,873Z" fill="#b79761" stroke="#b79761" stroke-width="1.51"/><path d="M-318,40L-360,-299L-351,197Z" fill="#ab7951" stroke="#ab7951" stroke-width="1.51"/><path d="M-110,-266L-360,-299L-318,40Z" fill="#c1754b" stroke="#c1754b" stroke-width="1.51"/><path d="M169,-277L-360,-299L-110,-266Z" fill="#c0764c" stroke="#c0764c" stroke-width="1.51"/><path d="M829,-287L-360,-299L169,-277Z" fill="#9e8159" stroke="#9e8159" stroke-width="1.51"/><path d="M-341,873L-268,1115L-43,920Z" fill="#82805a" stroke="#82805a" stroke-width="1.51"/><path d="M-138,1122L-268,1115L567,1188Z" fill="#3e755b" stroke="#3e755b" stroke-width="1.51"/></svg>