<svg xmlns="http://www.w3.org/2000/svg" width="1440" height="900"><path d="M797,483L619,252L624,493Z" fill="#f0881d" stroke="#f0881d" stroke-width="1.51"/><path d="M797,483L816,211L619,252Z" fill="#f18e1e" stroke="#f18e1e" stroke-width="1.51"/><path d="M624,493L853,674L797,483Z" fill="#e96e1b" stroke="#e96e1b" stroke-width="1.51"/><path d="M396,465L567,640L624,493Z" fill="#ef861d" stroke="#ef861d" stroke-width="1.51"/><path d="M619,252L396,465L624,493Z" fill="#f3951e" stroke="#f3951e" stroke-width="1.51"/><path d="M567,640L853,674L624,493Z" fill="#e96f1b" stroke="#e96f1b" stroke-width="1.51"/><path d="M797,483L1071,453L816,211Z" fill="#ec781b" stroke="#ec781b" stroke-width="1.51"/><path d="M1046,656L1071,453L797,483Z" fill="#e55d19" stroke="#e55d19" stroke-width="1.51"/><path d="M619,252L347,217L396,465Z" fill="#f8a820" stroke="#f8a820" stroke-width="1.51"/><path d="M567,-37L347,217L619,252Z" fill="#fab223" stroke="#fab223" stroke-width="1.51"/><path d="M816,211L567,-37L619,252Z" fill="#f7a421" stroke="#f7a421" stroke-width="1.51"/><path d="M877,-56L567,-37L816,211Z" fill="#f69423" stroke="#f69423" stroke-width="1.51"/><path d="M1071,453L1088,175L816,211Z" fill="#ed7d1c" stroke="#ed7d1c" stroke-width="1.51"/><path d="M853,674L1046,656L797,483Z" fill="#e45919" stroke="#e45919" stroke-width="1.51"/><path d="M1088,175L877,-56L816,211Z" fill="#f28b20" stroke="#f28b20" stroke-width="1.51"/><path d="M567,640L820,927L853,674Z" fill="#e35819" stroke="#e35819" stroke-width="1.51"/><path d="M853,674L1115,897L1046,656Z" fill="#dc3917" stroke="#dc3917" stroke-width="1.51"/><path d="M396,465L395,724L567,640Z" fill="#ef831c" stroke="#ef831c" stroke-width="1.51"/><path d="M154,476L395,724L396,465Z" fill="#f3951f" stroke="#f3951f" stroke-width="1.51"/><path d="M567,-37L374,-61L347,217Z" fill="#fcb127" stroke="#fcb127" stroke-width="1.51"/><path d="M561,-256L374,-61L567,-37Z" fill="#fb9e2a" stroke="#fb9e2a" stroke-width="1.51"/><path d="M1088,175L1050,-63L877,-56Z" fill="#f07c21" stroke="#f07c21" stroke-width="1.51"/><path d="M877,-56L841,-242L567,-37Z" fill="#f68726" stroke="#f68726" stroke-width="1.51"/><path d="M347,217L154,476L396,465Z" fill="#f8a921" stroke="#f8a921" stroke-width="1.51"/><path d="M158,-30L169,215L347,217Z" fill="#febc27" stroke="#febc27" stroke-width="1.51"/><path d="M169,215L154,476L347,217Z" fill="#faaf24" stroke="#faaf24" stroke-width="1.51"/><path d="M566,952L820,927L567,640Z" fill="#e96919" stroke="#e96919" stroke-width="1.51"/><path d="M1071,453L1290,481L1088,175Z" fill="#e7671a" stroke="#e7671a" stroke-width="1.51"/><path d="M1088,175L1280,-51L1050,-63Z" fill="#ee7320" stroke="#ee7320" stroke-width="1.51"/><path d="M1046,656L1290,481L1071,453Z" fill="#e14e18" stroke="#e14e18" stroke-width="1.51"/><path d="M1337,715L1290,481L1046,656Z" fill="#df4516" stroke="#df4516" stroke-width="1.51"/><path d="M395,724L566,952L567,640Z" fill="#ea711a" stroke="#ea711a" stroke-width="1.51"/><path d="M397,977L566,952L395,724Z" fill="#ee7f1a" stroke="#ee7f1a" stroke-width="1.51"/><path d="M1079,-236L841,-242L877,-56Z" fill="#f17126" stroke="#f17126" stroke-width="1.51"/><path d="M841,-242L561,-256L567,-37Z" fill="#f88b29" stroke="#f88b29" stroke-width="1.51"/><path d="M820,927L1115,897L853,674Z" fill="#e14c17" stroke="#e14c17" stroke-width="1.51"/><path d="M1290,481L1367,245L1088,175Z" fill="#ec761a" stroke="#ec761a" stroke-width="1.51"/><path d="M-90,496L96,675L154,476Z" fill="#f48624" stroke="#f48624" stroke-width="1.51"/><path d="M374,-61L158,-30L347,217Z" fill="#feb828" stroke="#feb828" stroke-width="1.51"/><path d="M312,-225L158,-30L374,-61Z" fill="#feac2c" stroke="#feac2c" stroke-width="1.51"/><path d="M631,1180L886,1157L820,927Z" fill="#ec7216" stroke="#ec7216" stroke-width="1.51"/><path d="M820,927L1065,1132L1115,897Z" fill="#e35216" stroke="#e35216" stroke-width="1.51"/><path d="M132,940L397,977L395,724Z" fill="#f18b1b" stroke="#f18b1b" stroke-width="1.51"/><path d="M154,476L96,675L395,724Z" fill="#f18620" stroke="#f18620" stroke-width="1.51"/><path d="M-90,496L154,476L169,215Z" fill="#f89b26" stroke="#f89b26" stroke-width="1.51"/><path d="M561,-256L312,-225L374,-61Z" fill="#fda02c" stroke="#fda02c" stroke-width="1.51"/><path d="M1050,-63L1079,-236L877,-56Z" fill="#f07024" stroke="#f07024" stroke-width="1.51"/><path d="M841,-242L1358,-289L561,-256Z" fill="#f16a28" stroke="#f16a28" stroke-width="1.51"/><path d="M1280,-51L1079,-236L1050,-63Z" fill="#ed6623" stroke="#ed6623" stroke-width="1.51"/><path d="M1367,245L1280,-51L1088,175Z" fill="#f0821d" stroke="#f0821d" stroke-width="1.51"/><path d="M1115,897L1337,715L1046,656Z" fill="#da2d16" stroke="#da2d16" stroke-width="1.51"/><path d="M1290,481L1508,458L1367,245Z" fill="#ea7119" stroke="#ea7119" stroke-width="1.51"/><path d="M96,675L132,940L395,724Z" fill="#ef7c1e" stroke="#ef7c1e" stroke-width="1.51"/><path d="M-169,206L-90,496L169,215Z" fill="#fba029" stroke="#fba029" stroke-width="1.51"/><path d="M-155,937L132,940L96,675Z" fill="#f07621" stroke="#f07621" stroke-width="1.51"/><path d="M631,1180L566,952L397,977Z" fill="#f18419" stroke="#f18419" stroke-width="1.51"/><path d="M631,1180L820,927L566,952Z" fill="#ed7617" stroke="#ed7617" stroke-width="1.51"/><path d="M1115,897L1269,952L1337,715Z" fill="#df4015" stroke="#df4015" stroke-width="1.51"/><path d="M1367,245L1512,-24L1280,-51Z" fill="#f2841f" stroke="#f2841f" stroke-width="1.51"/><path d="M1337,715L1508,458L1290,481Z" fill="#e55a17" stroke="#e55a17" stroke-width="1.51"/><path d="M1337,715L1559,689L1508,458Z" fill="#e45516" stroke="#e45516" stroke-width="1.51"/><path d="M1065,1132L1269,952L1115,897Z" fill="#e14815" stroke="#e14815" stroke-width="1.51"/><path d="M329,1128L631,1180L397,977Z" fill="#f49018" stroke="#f49018" stroke-width="1.51"/><path d="M1508,458L1520,219L1367,245Z" fill="#ef8119" stroke="#ef8119" stroke-width="1.51"/><path d="M886,1157L1065,1132L820,927Z" fill="#e86216" stroke="#e86216" stroke-width="1.51"/><path d="M132,940L329,1128L397,977Z" fill="#f4931b" stroke="#f4931b" stroke-width="1.51"/><path d="M561,-256L95,-254L312,-225Z" fill="#ffa22f" stroke="#ffa22f" stroke-width="1.51"/><path d="M312,-225L95,-254L158,-30Z" fill="#ffa12f" stroke="#ffa12f" stroke-width="1.51"/><path d="M-71,-75L-169,206L169,215Z" fill="#ffac2c" stroke="#ffac2c" stroke-width="1.51"/><path d="M-71,-75L169,215L158,-30Z" fill="#ffac2d" stroke="#ffac2d" stroke-width="1.51"/><path d="M95,-254L-71,-75L158,-30Z" fill="#ff9e30" stroke="#ff9e30" stroke-width="1.51"/><path d="M1280,-51L1358,-289L1079,-236Z" fill="#ee6424" stroke="#ee6424" stroke-width="1.51"/><path d="M1520,219L1512,-24L1367,245Z" fill="#f3901c" stroke="#f3901c" stroke-width="1.51"/><path d="M-90,496L-164,651L96,675Z" fill="#f17724" stroke="#f17724" stroke-width="1.51"/><path d="M-349,488L-164,651L-90,496Z" fill="#f37727" stroke="#f37727" stroke-width="1.51"/><path d="M1571,885L1559,689L1337,715Z" fill="#e14915" stroke="#e14915" stroke-width="1.51"/><path d="M1508,458L1802,467L1520,219Z" fill="#ef7f17" stroke="#ef7f17" stroke-width="1.51"/><path d="M1824,3L1563,-233L1512,-24Z" fill="#f68521" stroke="#f68521" stroke-width="1.51"/><path d="M1512,-24L1358,-289L1280,-51Z" fill="#f17323" stroke="#f17323" stroke-width="1.51"/><path d="M1079,-236L1358,-289L841,-242Z" fill="#ed5925" stroke="#ed5925" stroke-width="1.51"/><path d="M561,-256L-382,-283L95,-254Z" fill="#ff9332" stroke="#ff9332" stroke-width="1.51"/><path d="M132,940L127,1156L329,1128Z" fill="#f6931d" stroke="#f6931d" stroke-width="1.51"/><path d="M329,1128L127,1156L631,1180Z" fill="#f79c18" stroke="#f79c18" stroke-width="1.51"/><path d="M-98,1191L127,1156L132,940Z" fill="#f68c20" stroke="#f68c20" stroke-width="1.51"/><path d="M95,-254L-107,-223L-71,-75Z" fill="#ff9332" stroke="#ff9332" stroke-width="1.51"/><path d="M-364,-67L-346,218L-169,206Z" fill="#ff9d30" stroke="#ff9d30" stroke-width="1.51"/><path d="M1269,952L1571,885L1337,715Z" fill="#e14a15" stroke="#e14a15" stroke-width="1.51"/><path d="M1608,1150L1571,885L1269,952Z" fill="#e85e13" stroke="#e85e13" stroke-width="1.51"/><path d="M631,1180L1314,1195L886,1157Z" fill="#ea6a14" stroke="#ea6a14" stroke-width="1.51"/><path d="M886,1157L1314,1195L1065,1132Z" fill="#e65913" stroke="#e65913" stroke-width="1.51"/><path d="M1065,1132L1314,1195L1269,952Z" fill="#e55613" stroke="#e55613" stroke-width="1.51"/><path d="M-164,651L-155,937L96,675Z" fill="#ee6823" stroke="#ee6823" stroke-width="1.51"/><path d="M1512,-24L1563,-233L1358,-289Z" fill="#f37324" stroke="#f37324" stroke-width="1.51"/><path d="M1824,3L1512,-24L1520,219Z" fill="#f6911d" stroke="#f6911d" stroke-width="1.51"/><path d="M1802,467L1508,458L1559,689Z" fill="#ea6b16" stroke="#ea6b16" stroke-width="1.51"/><path d="M-164,651L-335,683L-155,937Z" fill="#ed5e24" stroke="#ed5e24" stroke-width="1.51"/><path d="M-169,206L-349,488L-90,496Z" fill="#f88a2a" stroke="#f88a2a" stroke-width="1.51"/><path d="M-346,218L-349,488L-169,206Z" fill="#fb912c" stroke="#fb912c" stroke-width="1.51"/><path d="M-364,-67L-169,206L-71,-75Z" fill="#ff9a31" stroke="#ff9a31" stroke-width="1.51"/><path d="M-349,488L-335,683L-164,651Z" fill="#f16827" stroke="#f16827" stroke-width="1.51"/><path d="M1833,706L1802,467L1559,689Z" fill="#e96514" stroke="#e96514" stroke-width="1.51"/><path d="M1802,467L1823,202L1520,219Z" fill="#f49018" stroke="#f49018" stroke-width="1.51"/><path d="M127,1156L-98,1191L631,1180Z" fill="#f89c1b" stroke="#f89c1b" stroke-width="1.51"/><path d="M631,1180L-310,1207L1314,1195Z" fill="#f48f17" stroke="#f48f17" stroke-width="1.51"/><path d="M-155,937L-98,1191L132,940Z" fill="#f48021" stroke="#f48021" stroke-width="1.51"/><path d="M-310,1207L-98,1191L-155,937Z" fill="#f77e24" stroke="#f77e24" stroke-width="1.51"/><path d="M-107,-223L-364,-67L-71,-75Z" fill="#ff8f33" stroke="#ff8f33" stroke-width="1.51"/><path d="M-346,218L-364,-67L-349,488Z" fill="#fe982f" stroke="#fe982f" stroke-width="1.51"/><path d="M1571,885L1833,706L1559,689Z" fill="#e45414" stroke="#e45414" stroke-width="1.51"/><path d="M1802,467L2036,202L1823,202Z" fill="#f79a16" stroke="#f79a16" stroke-width="1.51"/><path d="M1827,922L1833,706L1571,885Z" fill="#e86112" stroke="#e86112" stroke-width="1.51"/><path d="M1841,-233L1824,3L2043,2Z" fill="#fb9420" stroke="#fb9420" stroke-width="1.51"/><path d="M1823,202L1824,3L1520,219Z" fill="#f89d1a" stroke="#f89d1a" stroke-width="1.51"/><path d="M1314,1195L1608,1150L1269,952Z" fill="#e96212" stroke="#e96212" stroke-width="1.51"/><path d="M-335,683L-393,924L-155,937Z" fill="#ef6025" stroke="#ef6025" stroke-width="1.51"/><path d="M-349,488L-393,924L-335,683Z" fill="#ed5526" stroke="#ed5526" stroke-width="1.51"/><path d="M-364,-67L-393,924L-349,488Z" fill="#f7792b" stroke="#f7792b" stroke-width="1.51"/><path d="M1608,1150L1827,922L1571,885Z" fill="#eb6812" stroke="#eb6812" stroke-width="1.51"/><path d="M-364,-67L-382,-283L-393,924Z" fill="#ff9930" stroke="#ff9930" stroke-width="1.51"/><path d="M-107,-223L-382,-283L-364,-67Z" fill="#ff8235" stroke="#ff8235" stroke-width="1.51"/><path d="M95,-254L-382,-283L-107,-223Z" fill="#ff8634" stroke="#ff8634" stroke-width="1.51"/><path d="M1358,-289L-382,-283L561,-256Z" fill="#fb8f2d" stroke="#fb8f2d" stroke-width="1.51"/><path d="M2036,202L1824,3L1823,202Z" fill="#fba519" stroke="#fba519" stroke-width="1.51"/><path d="M1824,3L1841,-233L1563,-233Z" fill="#f88523" stroke="#f88523" stroke-width="1.51"/><path d="M1563,-233L2039,-292L1358,-289Z" fill="#f77526" stroke="#f77526" stroke-width="1.51"/><path d="M-98,1191L-310,1207L631,1180Z" fill="#f9941f" stroke="#f9941f" stroke-width="1.51"/><path d="M-393,924L-310,1207L-155,937Z" fill="#f47025" stroke="#f47025" stroke-width="1.51"/><path d="M2083,491L2036,202L1802,467Z" fill="#f58f15" stroke="#f58f15" stroke-width="1.51"/><path d="M2083,491L1802,467L1833,706Z" fill="#ef7914" stroke="#ef7914" stroke-width="1.51"/><path d="M1827,922L1999,739L1833,706Z" fill="#ea6512" stroke="#ea6512" stroke-width="1.51"/><path d="M1827,922L2025,973L1999,739Z" fill="#ed6e11" stroke="#ed6e11" stroke-width="1.51"/><path d="M1608,1150L1834,1160L1827,922Z" fill="#ef750f" stroke="#ef750f" stroke-width="1.51"/><path d="M1314,1195L1834,1160L1608,1150Z" fill="#ee7310" stroke="#ee7310" stroke-width="1.51"/><path d="M1999,739L2083,491L1833,706Z" fill="#ec6d13" stroke="#ec6d13" stroke-width="1.51"/><path d="M2083,491L2043,2L2036,202Z" fill="#f9a216" stroke="#f9a216" stroke-width="1.51"/><path d="M2036,202L2043,2L1824,3Z" fill="#fba21b" stroke="#fba21b" stroke-width="1.51"/><path d="M1834,1160L2025,973L1827,922Z" fill="#f0790f" stroke="#f0790f" stroke-width="1.51"/><path d="M1999,739L2025,973L2083,491Z" fill="#e86212" stroke="#e86212" stroke-width="1.51"/><path d="M1841,-233L2039,-292L1563,-233Z" fill="#f98025" stroke="#f98025" stroke-width="1.51"/><path d="M1358,-289L2039,-292L-382,-283Z" fill="#ef5f27" stroke="#ef5f27" stroke-width="1.51"/><path d="M2043,2L2039,-292L1841,-233Z" fill="#fb8d23" stroke="#fb8d23" stroke-width="1.51"/><path d="M2083,491L2039,-292L2043,2Z" fill="#fba11c" stroke="#fba11c" stroke-width="1.51"/><path d="M1834,1160L2065,1138L2025,973Z" fill="#f27f0d" stroke="#f27f0d" stroke-width="1.51"/><path d="M2025,973L2065,1138L2083,491Z" fill="#ec6d11" stroke="#ec6d11" stroke-width="1.51"/></svg>