<svg xmlns="http://www.w3.org/2000/svg" width="1440" height="900"><path d="M884,427L1060,429L888,188Z" fill="#3b489d" stroke="#3b489d" stroke-width="1.51"/><path d="M1060,429L1054,183L888,188Z" fill="#3b4da1" stroke="#3b4da1" stroke-width="1.51"/><path d="M1060,429L1281,208L1054,183Z" fill="#3c499b" stroke="#3c499b" stroke-width="1.51"/><path d="M1035,718L1235,444L1060,429Z" fill="#392c7d" stroke="#392c7d" stroke-width="1.51"/><path d="M1235,444L1281,208L1060,429Z" fill="#3d4896" stroke="#3d4896" stroke-width="1.51"/><path d="M557,455L779,613L884,427Z" fill="#3b489b" stroke="#3b489b" stroke-width="1.51"/><path d="M1028,-60L857,-23L888,188Z" fill="#3858b0" stroke="#3858b0" stroke-width="1.51"/><path d="M1028,-60L888,188L1054,183Z" fill="#3a55ab" stroke="#3a55ab" stroke-width="1.51"/><path d="M884,427L1035,718L1060,429Z" fill="#393385" stroke="#393385" stroke-width="1.51"/><path d="M631,159L884,427L888,188Z" fill="#3a5cb2" stroke="#3a5cb2" stroke-width="1.51"/><path d="M1269,-9L1028,-60L1054,183Z" fill="#3a4da3" stroke="#3a4da3" stroke-width="1.51"/><path d="M857,-23L631,159L888,188Z" fill="#3863bb" stroke="#3863bb" stroke-width="1.51"/><path d="M779,613L1035,718L884,427Z" fill="#3a3486" stroke="#3a3486" stroke-width="1.51"/><path d="M1281,208L1269,-9L1054,183Z" fill="#3c5aab" stroke="#3c5aab" stroke-width="1.51"/><path d="M631,159L557,455L884,427Z" fill="#3a5ab0" stroke="#3a5ab0" stroke-width="1.51"/><path d="M1235,444L1490,180L1281,208Z" fill="#4062aa" stroke="#4062aa" stroke-width="1.51"/><path d="M1281,208L1490,180L1269,-9Z" fill="#3e6cb6" stroke="#3e6cb6" stroke-width="1.51"/><path d="M1035,718L1313,636L1235,444Z" fill="#3b307c" stroke="#3b307c" stroke-width="1.51"/><path d="M779,613L772,901L1035,718Z" fill="#392e7e" stroke="#392e7e" stroke-width="1.51"/><path d="M557,455L605,615L779,613Z" fill="#3b489c" stroke="#3b489c" stroke-width="1.51"/><path d="M857,-23L615,-15L631,159Z" fill="#3668c2" stroke="#3668c2" stroke-width="1.51"/><path d="M312,236L380,483L557,455Z" fill="#386ac1" stroke="#386ac1" stroke-width="1.51"/><path d="M829,-287L615,-15L857,-23Z" fill="#345fbc" stroke="#345fbc" stroke-width="1.51"/><path d="M1028,-60L996,-215L857,-23Z" fill="#3652ad" stroke="#3652ad" stroke-width="1.51"/><path d="M1256,-215L996,-215L1028,-60Z" fill="#3647a3" stroke="#3647a3" stroke-width="1.51"/><path d="M1550,515L1490,180L1235,444Z" fill="#4163a6" stroke="#4163a6" stroke-width="1.51"/><path d="M1269,-9L1256,-215L1028,-60Z" fill="#3953a8" stroke="#3953a8" stroke-width="1.51"/><path d="M1516,-197L1256,-215L1269,-9Z" fill="#3b66b6" stroke="#3b66b6" stroke-width="1.51"/><path d="M1313,636L1550,515L1235,444Z" fill="#414d91" stroke="#414d91" stroke-width="1.51"/><path d="M1256,-215L829,-287L996,-215Z" fill="#354aa7" stroke="#354aa7" stroke-width="1.51"/><path d="M996,-215L829,-287L857,-23Z" fill="#3555b3" stroke="#3555b3" stroke-width="1.51"/><path d="M1313,636L1485,649L1550,515Z" fill="#425090" stroke="#425090" stroke-width="1.51"/><path d="M1327,942L1485,649L1313,636Z" fill="#404080" stroke="#404080" stroke-width="1.51"/><path d="M557,455L439,679L605,615Z" fill="#3b4ea2" stroke="#3b4ea2" stroke-width="1.51"/><path d="M312,236L557,455L631,159Z" fill="#376fc7" stroke="#376fc7" stroke-width="1.51"/><path d="M605,615L772,901L779,613Z" fill="#393486" stroke="#393486" stroke-width="1.51"/><path d="M1035,718L1327,942L1313,636Z" fill="#3c3177" stroke="#3c3177" stroke-width="1.51"/><path d="M598,969L772,901L605,615Z" fill="#3f4c96" stroke="#3f4c96" stroke-width="1.51"/><path d="M615,-15L432,-36L631,159Z" fill="#3372cd" stroke="#3372cd" stroke-width="1.51"/><path d="M578,-277L432,-36L615,-15Z" fill="#2f70cf" stroke="#2f70cf" stroke-width="1.51"/><path d="M380,483L439,679L557,455Z" fill="#3a58ad" stroke="#3a58ad" stroke-width="1.51"/><path d="M772,901L1029,966L1035,718Z" fill="#3e3d84" stroke="#3e3d84" stroke-width="1.51"/><path d="M432,-36L312,236L631,159Z" fill="#317bd6" stroke="#317bd6" stroke-width="1.51"/><path d="M1701,30L1579,-5L1490,180Z" fill="#3c8ac9" stroke="#3c8ac9" stroke-width="1.51"/><path d="M1490,180L1579,-5L1269,-9Z" fill="#3d77be" stroke="#3d77be" stroke-width="1.51"/><path d="M829,-287L578,-277L615,-15Z" fill="#3265c4" stroke="#3265c4" stroke-width="1.51"/><path d="M1029,966L1327,942L1035,718Z" fill="#3e397c" stroke="#3e397c" stroke-width="1.51"/><path d="M1697,646L1550,515L1485,649Z" fill="#445f99" stroke="#445f99" stroke-width="1.51"/><path d="M1697,646L1683,475L1550,515Z" fill="#446da5" stroke="#446da5" stroke-width="1.51"/><path d="M1550,515L1683,475L1490,180Z" fill="#4274b1" stroke="#4274b1" stroke-width="1.51"/><path d="M1579,-5L1516,-197L1269,-9Z" fill="#3c75be" stroke="#3c75be" stroke-width="1.51"/><path d="M1256,-215L1785,-243L829,-287Z" fill="#395db0" stroke="#395db0" stroke-width="1.51"/><path d="M1683,475L1712,210L1490,180Z" fill="#4086c0" stroke="#4086c0" stroke-width="1.51"/><path d="M1579,-5L1785,-243L1516,-197Z" fill="#3a8acc" stroke="#3a8acc" stroke-width="1.51"/><path d="M800,1128L1110,1096L1029,966Z" fill="#445f97" stroke="#445f97" stroke-width="1.51"/><path d="M439,679L598,969L605,615Z" fill="#3d4697" stroke="#3d4697" stroke-width="1.51"/><path d="M1712,210L1701,30L1490,180Z" fill="#3c91cd" stroke="#3c91cd" stroke-width="1.51"/><path d="M1545,937L1697,646L1485,649Z" fill="#445890" stroke="#445890" stroke-width="1.51"/><path d="M1683,475L1812,880L1712,210Z" fill="#457baf" stroke="#457baf" stroke-width="1.51"/><path d="M1029,966L1110,1096L1327,942Z" fill="#43528c" stroke="#43528c" stroke-width="1.51"/><path d="M800,1128L1029,966L772,901Z" fill="#435b99" stroke="#435b99" stroke-width="1.51"/><path d="M439,679L388,900L598,969Z" fill="#3f5ca7" stroke="#3f5ca7" stroke-width="1.51"/><path d="M380,483L172,711L439,679Z" fill="#3b57ad" stroke="#3b57ad" stroke-width="1.51"/><path d="M312,236L187,480L380,483Z" fill="#376ec7" stroke="#376ec7" stroke-width="1.51"/><path d="M112,216L187,480L312,236Z" fill="#3276d1" stroke="#3276d1" stroke-width="1.51"/><path d="M172,711L388,900L439,679Z" fill="#3d56a8" stroke="#3d56a8" stroke-width="1.51"/><path d="M567,1188L800,1128L598,969Z" fill="#437bb4" stroke="#437bb4" stroke-width="1.51"/><path d="M598,969L800,1128L772,901Z" fill="#4365a4" stroke="#4365a4" stroke-width="1.51"/><path d="M1327,942L1545,937L1485,649Z" fill="#445b91" stroke="#445b91" stroke-width="1.51"/><path d="M1455,1095L1545,937L1327,942Z" fill="#4674a0" stroke="#4674a0" stroke-width="1.51"/><path d="M170,-52L112,216L312,236Z" fill="#2a82e0" stroke="#2a82e0" stroke-width="1.51"/><path d="M170,-52L312,236L432,-36Z" fill="#2a81e0" stroke="#2a81e0" stroke-width="1.51"/><path d="M578,-277L312,-255L432,-36Z" fill="#2a75d7" stroke="#2a75d7" stroke-width="1.51"/><path d="M312,-255L170,-52L432,-36Z" fill="#277ee0" stroke="#277ee0" stroke-width="1.51"/><path d="M1110,1096L1257,1151L1327,942Z" fill="#466698" stroke="#466698" stroke-width="1.51"/><path d="M800,1128L1257,1151L1110,1096Z" fill="#466499" stroke="#466499" stroke-width="1.51"/><path d="M187,480L172,711L380,483Z" fill="#395db5" stroke="#395db5" stroke-width="1.51"/><path d="M-30,446L172,711L187,480Z" fill="#375cb5" stroke="#375cb5" stroke-width="1.51"/><path d="M1257,1151L1455,1095L1327,942Z" fill="#4675a1" stroke="#4675a1" stroke-width="1.51"/><path d="M800,1128L567,1188L1257,1151Z" fill="#4576aa" stroke="#4576aa" stroke-width="1.51"/><path d="M407,1117L567,1188L598,969Z" fill="#4184bf" stroke="#4184bf" stroke-width="1.51"/><path d="M407,1117L598,969L388,900Z" fill="#4078b8" stroke="#4078b8" stroke-width="1.51"/><path d="M1701,30L1785,-243L1579,-5Z" fill="#3993d1" stroke="#3993d1" stroke-width="1.51"/><path d="M1516,-197L1785,-243L1256,-215Z" fill="#3b7bc3" stroke="#3b7bc3" stroke-width="1.51"/><path d="M1712,210L1785,-243L1701,30Z" fill="#389ad5" stroke="#389ad5" stroke-width="1.51"/><path d="M1812,880L1785,-243L1712,210Z" fill="#3d99cd" stroke="#3d99cd" stroke-width="1.51"/><path d="M198,1099L407,1117L388,900Z" fill="#3e89c7" stroke="#3e89c7" stroke-width="1.51"/><path d="M829,-287L169,-277L578,-277Z" fill="#2c6dd0" stroke="#2c6dd0" stroke-width="1.51"/><path d="M578,-277L169,-277L312,-255Z" fill="#257ade" stroke="#257ade" stroke-width="1.51"/><path d="M312,-255L169,-277L170,-52Z" fill="#247be0" stroke="#247be0" stroke-width="1.51"/><path d="M-66,185L-30,446L112,216Z" fill="#2f75d4" stroke="#2f75d4" stroke-width="1.51"/><path d="M172,711L138,927L388,900Z" fill="#3d64b1" stroke="#3d64b1" stroke-width="1.51"/><path d="M112,216L-30,446L187,480Z" fill="#336cc8" stroke="#336cc8" stroke-width="1.51"/><path d="M-66,185L112,216L170,-52Z" fill="#297fe0" stroke="#297fe0" stroke-width="1.51"/><path d="M1697,646L1812,880L1683,475Z" fill="#456c9e" stroke="#456c9e" stroke-width="1.51"/><path d="M1545,937L1812,880L1697,646Z" fill="#4674a0" stroke="#4674a0" stroke-width="1.51"/><path d="M1748,1170L1812,880L1545,937Z" fill="#4496b5" stroke="#4496b5" stroke-width="1.51"/><path d="M-58,720L138,927L172,711Z" fill="#3b57aa" stroke="#3b57aa" stroke-width="1.51"/><path d="M-143,31L-66,185L170,-52Z" fill="#267ce0" stroke="#267ce0" stroke-width="1.51"/><path d="M407,1117L198,1099L567,1188Z" fill="#3d96ce" stroke="#3d96ce" stroke-width="1.51"/><path d="M138,927L198,1099L388,900Z" fill="#3e7bc0" stroke="#3e7bc0" stroke-width="1.51"/><path d="M-43,920L198,1099L138,927Z" fill="#3d7ac0" stroke="#3d7ac0" stroke-width="1.51"/><path d="M-30,446L-58,720L172,711Z" fill="#3853ac" stroke="#3853ac" stroke-width="1.51"/><path d="M-314,614L-58,720L-30,446Z" fill="#3654b0" stroke="#3654b0" stroke-width="1.51"/><path d="M-66,185L-314,482L-30,446Z" fill="#316ac9" stroke="#316ac9" stroke-width="1.51"/><path d="M-110,-266L-143,31L170,-52Z" fill="#2379df" stroke="#2379df" stroke-width="1.51"/><path d="M1455,1095L1748,1170L1545,937Z" fill="#4593b3" stroke="#4593b3" stroke-width="1.51"/><path d="M1257,1151L1748,1170L1455,1095Z" fill="#4495b4" stroke="#4495b4" stroke-width="1.51"/><path d="M567,1188L1748,1170L1257,1151Z" fill="#4674a0" stroke="#4674a0" stroke-width="1.51"/><path d="M-58,720L-43,920L138,927Z" fill="#3c62b2" stroke="#3c62b2" stroke-width="1.51"/><path d="M-341,873L-43,920L-58,720Z" fill="#3a5db0" stroke="#3a5db0" stroke-width="1.51"/><path d="M169,-277L-110,-266L170,-52Z" fill="#2278df" stroke="#2278df" stroke-width="1.51"/><path d="M-351,197L-66,185L-143,31Z" fill="#257ce0" stroke="#257ce0" stroke-width="1.51"/><path d="M-351,197L-314,482L-66,185Z" fill="#2b71d3" stroke="#2b71d3" stroke-width="1.51"/><path d="M-110,-266L-318,40L-143,31Z" fill="#2077df" stroke="#2077df" stroke-width="1.51"/><path d="M-314,482L-314,614L-30,446Z" fill="#345ab9" stroke="#345ab9" stroke-width="1.51"/><path d="M-351,197L-314,614L-314,482Z" fill="#3061c2" stroke="#3061c2" stroke-width="1.51"/><path d="M-318,40L-351,197L-143,31Z" fill="#237adf" stroke="#237adf" stroke-width="1.51"/><path d="M-268,1115L-138,1122L-43,920Z" fill="#3b84c9" stroke="#3b84c9" stroke-width="1.51"/><path d="M-43,920L-138,1122L198,1099Z" fill="#3c85c8" stroke="#3c85c8" stroke-width="1.51"/><path d="M198,1099L-138,1122L567,1188Z" fill="#3a98d3" stroke="#3a98d3" stroke-width="1.51"/><path d="M-314,614L-341,873L-58,720Z" fill="#3649a4" stroke="#3649a4" stroke-width="1.51"/><path d="M-351,197L-341,873L-314,614Z" fill="#3354b3" stroke="#3354b3" stroke-width="1.51"/><path d="M-351,197L-360,-299L-341,873Z" fill="#2873d6" stroke="#2873d6" stroke-width="1.51"/><path d="M-318,40L-360,-299L-351,197Z" fill="#1e76df" stroke="#1e76df" stroke-width="1.51"/><path d="M-110,-266L-360,-299L-318,40Z" fill="#1b74df" stroke="#1b74df" stroke-width="1.51"/><path d="M169,-277L-360,-299L-110,-266Z" fill="#1b74df" stroke="#1b74df" stroke-width="1.51"/><path d="M829,-287L-360,-299L169,-277Z" fill="#2279df" stroke="#2279df" stroke-width="1.51"/><path d="M-341,873L-268,1115L-43,920Z" fill="#3b73bf" stroke="#3b73bf" stroke-width="1.51"/><path d="M-138,1122L-268,1115L567,1188Z" fill="#3997d3" stroke="#3997d3" stroke-width="1.51"/></svg>